<?xml version="1.0" encoding="utf-8"?>
<!-- Generator: Adobe Illustrator 16.0.0, SVG Export Plug-In . SVG Version: 6.00 Build 0)  -->
<!DOCTYPE svg PUBLIC "-//W3C//DTD SVG 1.1//EN" "http://www.w3.org/Graphics/SVG/1.1/DTD/svg11.dtd">
<svg version="1.1" id="icons" xmlns="http://www.w3.org/2000/svg" xmlns:xlink="http://www.w3.org/1999/xlink" x="0px" y="0px"
	 width="64px" height="64px" viewBox="0 0 64 64" enable-background="new 0 0 64 64" xml:space="preserve">
<g>
	<g>
		<g>
			<path fill="#76899D" d="M50,19c-4.11,0-7.63,2.47-9.17,6C40.3,26.22,40,27.58,40,29c0,2.7,1.92,6.84,4.11,10.35
				C46.4,43.01,48.98,46,50,46c1.44,0,5.97-5.93,8.41-11.32c0,0,0.01,0,0-0.01C59.37,32.57,60,30.55,60,29C60,23.47,55.521,19,50,19
				z"/>
			<path fill="#A4804B" d="M20,7c-5.53,0-10,4.47-10,10c0,2.12,1.18,5.12,2.74,8c2.52,4.64,6.03,9,7.26,9c1.23,0,4.74-4.36,7.25-9
				c1.57-2.88,2.75-5.88,2.75-8C30,11.47,25.521,7,20,7z"/>
		</g>
		<polygon fill="#8CC152" points="63,56.58 63,57 32,57 32,53 63,53 		"/>
		<rect x="1" y="53" fill="#4A89DC" width="31" height="4"/>
		<polygon fill="#656D78" points="56.03,28.01 53.03,29.01 50.03,30.01 47.03,29.01 44.03,28.01 50.03,26.01 		"/>
		<path fill="#5D9CEC" d="M36,25h4.83C40.3,26.22,40,27.58,40,29c0,2.7,1.92,6.84,4.11,10.35C37.65,43,32,45.83,32,53H1l1-4
			C16,40,28.25,45.91,36,25z"/>
		<polygon fill="#545C66" points="53.03,29.01 53.03,33.01 47.03,33.01 47.03,29.01 50.03,30.01 		"/>
		<path fill="#A0D468" d="M12.74,25c2.52,4.64,6.03,9,7.26,9c1.23,0,4.74-4.36,7.25-9H36C28.25,45.91,16,40,2,49l6-24H12.74z"/>
		<path fill="#A0D468" d="M58.41,34.68L63,53H32c0-7.17,5.65-10,12.11-13.65C46.4,43.01,48.98,46,50,46
			C51.44,46,55.97,40.07,58.41,34.68z"/>
		<polygon fill="#545C66" points="23,17 23,21 17,21 17,17 20,18 		"/>
		<polygon fill="#656D78" points="26,16 23,17 20,18 17,17 14,16 20,14 		"/>
	</g>
	<g>
		<path fill="#545C66" d="M23,22h-6c-0.553,0-1-0.447-1-1v-4c0-0.553,0.447-1,1-1s1,0.447,1,1v3h4v-3.001c0-0.553,0.447-1,1-1
			s1,0.447,1,1V21C24,21.553,23.553,22,23,22z"/>
	</g>
	<g>
		<path fill="#FFCE54" d="M26,18.999c-0.553,0-1-0.447-1-1v-2c0-0.553,0.447-1,1-1s1,0.447,1,1v2C27,18.552,26.553,18.999,26,18.999
			z"/>
	</g>
	<g>
		<path fill="#545C66" d="M53.029,34.012h-6c-0.553,0-1-0.447-1-1v-4c0-0.553,0.447-1,1-1s1,0.447,1,1v3h4v-3.001
			c0-0.553,0.447-1,1-1s1,0.447,1,1v4.001C54.029,33.564,53.582,34.012,53.029,34.012z"/>
	</g>
	<g>
		<path fill="#FFCE54" d="M56.029,31.011c-0.553,0-1-0.447-1-1v-2c0-0.553,0.447-1,1-1s1,0.447,1,1v2
			C57.029,30.563,56.582,31.011,56.029,31.011z"/>
	</g>
	<g>
		<path fill="#656D78" d="M20,18.999c-0.106,0-0.214-0.018-0.316-0.052l-6-2C13.275,16.812,13,16.43,13,15.999
			s0.275-0.813,0.684-0.948l6-2c0.205-0.068,0.428-0.068,0.633,0l6,2C26.725,15.187,27,15.568,27,15.999s-0.275,0.813-0.684,0.948
			l-6,2C20.214,18.981,20.106,18.999,20,18.999z M17.162,15.999L20,16.945l2.838-0.946L20,15.053L17.162,15.999z"/>
	</g>
	<g>
		<path fill="#656D78" d="M50.029,31.011c-0.106,0-0.214-0.018-0.316-0.052l-6-2c-0.408-0.136-0.684-0.518-0.684-0.948
			s0.275-0.813,0.684-0.948l6-2c0.205-0.068,0.428-0.068,0.633,0l6,2c0.408,0.136,0.684,0.518,0.684,0.948s-0.275,0.813-0.684,0.948
			l-6,2C50.243,30.993,50.136,31.011,50.029,31.011z M47.191,28.011l2.838,0.946l2.838-0.946l-2.838-0.946L47.191,28.011z"/>
	</g>
</g>
</svg>
