<?xml version="1.0" encoding="iso-8859-1"?>
<!-- Generator: Adobe Illustrator 19.0.0, SVG Export Plug-In . SVG Version: 6.00 Build 0)  -->
<svg xmlns="http://www.w3.org/2000/svg" xmlns:xlink="http://www.w3.org/1999/xlink" version="1.1" id="Layer_1" x="0px" y="0px" viewBox="0 0 512.002 512.002" style="enable-background:new 0 0 512.002 512.002;" xml:space="preserve">
<g>
	<path style="fill:#995D34;" d="M331.595,221.474h-151.19c-12.979,0-23.5-10.521-23.5-23.5V59.133   c0-26.81,21.811-48.621,48.621-48.621h100.949c26.81,0,48.62,21.811,48.62,48.621v138.841   C355.095,210.952,344.575,221.474,331.595,221.474z M203.905,174.475h104.191V59.133c0-0.893-0.728-1.621-1.621-1.621h-100.95   c-0.893,0-1.621,0.728-1.621,1.621L203.905,174.475L203.905,174.475z"/>
	<path style="fill:#995D34;" d="M23.721,198.706v253.425c0,27.259,22.098,49.357,49.357,49.357h365.845   c27.259,0,49.357-22.098,49.357-49.357V198.706H23.721z"/>
</g>
<path style="opacity:0.1;enable-background:new    ;" d="M488.279,198.707H23.721v78.876  c46.802,31.367,108.329,52.165,175.346,59.729v28.095c0,23.773,19.341,43.113,43.113,43.113h27.639  c23.773,0,43.113-19.341,43.113-43.113v-28.095c67.018-7.562,128.545-28.361,175.347-59.728L488.279,198.707L488.279,198.707z"/>
<path style="opacity:0.1;enable-background:new    ;" d="M355.095,197.975V81.28h-47v93.194h-104.19V81.28h-47v116.694  c0,12.979,10.521,23.5,23.5,23.5h151.191C344.575,221.474,355.095,210.952,355.095,197.975z"/>
<path style="fill:#B8703F;" d="M469.316,111.261H42.684c-19.434,0-35.188,15.754-35.188,35.188v52.204  c0,19.04,9.137,36.882,24.49,48.144c53.018,38.89,133.678,63.718,224.016,63.718c90.336,0,170.996-24.827,224.014-63.716  c15.353-11.262,24.49-29.103,24.49-48.144V146.45C504.505,127.014,488.751,111.261,469.316,111.261z"/>
<path style="fill:#FEA001;" d="M269.82,301.275H242.18c-7.252,0-13.133,5.879-13.133,13.133v50.999  c0,7.252,5.879,13.133,13.133,13.133h27.639c7.252,0,13.133-5.879,13.133-13.133v-50.999  C282.952,307.155,277.072,301.275,269.82,301.275z"/>
<path d="M457.049,215.489c-3.814,2.797-7.839,5.541-11.961,8.156c-3.496,2.217-4.532,6.848-2.315,10.344  c2.184,3.445,6.904,4.497,10.344,2.316c4.406-2.794,8.713-5.73,12.799-8.727c3.338-2.448,4.059-7.138,1.611-10.476  C465.077,213.763,460.388,213.043,457.049,215.489z"/>
<path d="M93.318,238.164c-3.739-1.78-8.211-0.193-9.99,3.545c-1.78,3.738-0.192,8.21,3.545,9.99  c9.289,4.423,19.174,8.513,29.378,12.155c0.832,0.297,1.684,0.438,2.519,0.438c3.079,0,5.965-1.912,7.058-4.977  c1.392-3.898-0.641-8.187-4.539-9.579C111.561,246.263,102.15,242.369,93.318,238.164z"/>
<path d="M150.33,258.651c-4.006-1.044-8.099,1.358-9.142,5.365s1.358,8.099,5.364,9.142c10.009,2.606,20.406,4.874,30.906,6.738  c0.444,0.079,0.884,0.117,1.319,0.117c3.565,0,6.726-2.554,7.371-6.186c0.724-4.075-1.994-7.966-6.069-8.689  C169.966,263.341,159.957,261.158,150.33,258.651z"/>
<path d="M418.692,238.161c-8.833,4.205-18.245,8.1-27.973,11.573c-3.898,1.392-5.931,5.68-4.539,9.579  c1.369,3.837,5.746,5.907,9.579,4.539c10.204-3.644,20.089-7.733,29.378-12.156c3.737-1.78,5.325-6.252,3.545-9.99  C426.903,237.968,422.43,236.381,418.692,238.161z"/>
<path d="M210.279,269.357c-4.134-0.427-7.8,2.569-8.225,6.687c-0.425,4.118,2.569,7.8,6.687,8.225  c10.356,1.067,20.956,1.79,31.502,2.144c0.086,0.003,0.171,0.004,0.257,0.004c4.022,0,7.349-3.192,7.486-7.243  c0.139-4.137-3.102-7.603-7.239-7.743C230.543,271.087,220.293,270.389,210.279,269.357z"/>
<path d="M361.68,258.65c-9.625,2.506-19.633,4.689-29.749,6.486c-4.075,0.724-6.793,4.614-6.069,8.69  c0.711,4.003,4.696,6.782,8.69,6.069c10.502-1.865,20.901-4.132,30.906-6.739c4.005-1.043,6.407-5.137,5.364-9.142  C369.779,260.009,365.691,257.604,361.68,258.65z"/>
<path d="M301.738,269.355c-10.006,1.032-20.248,1.73-30.445,2.074c-4.137,0.139-7.378,3.606-7.238,7.743  c0.137,4.051,3.464,7.243,7.486,7.243c0.086,0,0.172-0.001,0.258-0.004c10.54-0.355,21.131-1.076,31.478-2.145  c4.117-0.425,7.111-4.107,6.686-8.225C309.538,271.924,305.86,268.933,301.738,269.355z"/>
<path d="M54.95,215.489c-3.337-2.447-8.027-1.727-10.476,1.611c-2.447,3.338-1.727,8.029,1.611,10.476  c4.079,2.992,8.386,5.928,12.798,8.726c3.387,2.149,8.132,1.174,10.344-2.315c2.218-3.496,1.181-8.127-2.314-10.344  C62.783,221.025,58.758,218.281,54.95,215.489z"/>
<path d="M496.888,143.919c0.352,3.893,3.621,6.822,7.456,6.822c0.226,0,0.454-0.01,0.684-0.031c4.122-0.373,7.162-4.016,6.791-8.139  c-1.998-22.123-20.269-38.805-42.501-38.805H362.59V59.133c0-30.942-25.173-56.115-56.115-56.115h-100.95  c-30.942,0-56.115,25.173-56.115,56.115v44.632h-46.104c-4.14,0-7.495,3.356-7.495,7.495c0,4.139,3.355,7.495,7.495,7.495h366.011  C483.74,118.756,495.593,129.574,496.888,143.919z M300.601,103.765H211.4V65.007h89.201V103.765z M315.591,103.765V59.133  c0-5.027-4.089-9.116-9.116-9.116h-100.95c-5.026,0-9.115,4.089-9.115,9.116v44.632H164.4V59.133  c0-22.676,18.448-41.125,41.125-41.125h100.95c22.676,0,41.125,18.448,41.125,41.125v44.632  C347.6,103.765,315.591,103.765,315.591,103.765z"/>
<path d="M23.721,323.628c-4.14,0-7.495,3.356-7.495,7.495v121.008c0,31.349,25.505,56.852,56.852,56.852h300.054  c4.14,0,7.495-3.356,7.495-7.495s-3.355-7.495-7.495-7.495H73.078c-23.083,0-41.862-18.779-41.862-41.862V331.123  C31.216,326.984,27.861,323.628,23.721,323.628z"/>
<path d="M16.226,301.142c0,4.139,3.355,7.495,7.495,7.495s7.495-3.356,7.495-7.495v-45.666c0.206,0.145,0.419,0.287,0.626,0.432  c20.102,14.117,42.272,25.393,65.168,34.212c22.443,8.645,45.714,15.082,69.334,19.572c18.237,3.468,36.69,5.819,55.21,7.11v48.602  c0,11.374,9.254,20.628,20.628,20.628h27.639c11.374,0,20.628-9.253,20.628-20.628v-48.602c27.392-1.912,54.571-6.057,81.178-12.892  c24.196-6.215,47.903-14.529,70.34-25.559c13.263-6.521,26.087-13.948,38.189-22.441c0.209-0.146,0.423-0.288,0.631-0.435v196.654  c0,23.083-18.779,41.862-41.862,41.862h-35.809c-4.14,0-7.495,3.356-7.495,7.495s3.355,7.495,7.495,7.495h35.809  c31.348,0,56.852-25.504,56.852-56.852V242.322c10.332-12.076,16.226-27.58,16.226-43.669v-25.429c0-4.139-3.355-7.495-7.495-7.495  s-7.495,3.356-7.495,7.495c0,0,0,25.424,0,25.429c0,16.355-8.242,32.429-21.427,42.1c-21.014,15.414-44.853,27.402-69.251,36.429  c-37.295,13.797-76.673,21.769-116.304,24.613c-1.24,0.089-2.48,0.168-3.721,0.247c-0.073-0.096-0.151-0.187-0.225-0.282  c-3.849-4.925-9.997-7.981-16.261-7.981h-27.639c-6.263,0-12.433,3.061-16.275,7.999c-0.069,0.089-0.143,0.174-0.211,0.264  c-0.419-0.027-0.839-0.049-1.258-0.077c-41.261-2.765-82.502-10.83-121.165-25.685c-24.316-9.343-50.557-21.049-70.349-38.35  c-11.237-9.819-17.935-24.337-17.935-39.277v-52.204c0-15.27,12.423-27.692,27.693-27.692h30.641c4.14,0,7.495-3.356,7.495-7.495  c0-4.139-3.355-7.495-7.495-7.495H42.684C19.148,103.765,0,122.913,0,146.449v52.204c0,16.088,5.893,31.592,16.226,43.668V301.142z   M269.82,308.771c0.267,0,0.53,0.024,0.789,0.062c0.046,0.006,0.091,0.013,0.136,0.021c1.949,0.332,3.63,1.685,4.341,3.581  c0.001,0.002,0.001,0.004,0.002,0.006c0.244,0.652,0.368,1.313,0.368,1.968v50.999c0,3.108-2.528,5.637-5.637,5.637h-27.639  c-3.108,0-5.637-2.528-5.637-5.637v-50.999c0-0.655,0.124-1.316,0.368-1.968l0.001-0.001c0.711-1.899,2.392-3.254,4.343-3.585  c0.045-0.008,0.091-0.014,0.136-0.021c0.26-0.038,0.523-0.062,0.789-0.062h27.64V308.771z"/>
<g>
</g>
<g>
</g>
<g>
</g>
<g>
</g>
<g>
</g>
<g>
</g>
<g>
</g>
<g>
</g>
<g>
</g>
<g>
</g>
<g>
</g>
<g>
</g>
<g>
</g>
<g>
</g>
<g>
</g>
</svg>
